<mxfile host="65bd71144e">
    <diagram id="nnqaFssuah-iqst_dD4T" name="Basic Architecture">
        <mxGraphModel dx="1599" dy="907" grid="1" gridSize="10" guides="1" tooltips="1" connect="1" arrows="1" fold="1" page="1" pageScale="1" pageWidth="850" pageHeight="1400" math="0" shadow="0">
            <root>
                <mxCell id="0"/>
                <mxCell id="1" parent="0"/>
                <mxCell id="RaNyFLefWozhpEZfhpIZ-14" value="" style="whiteSpace=wrap;html=1;shape=mxgraph.basic.cloud_rect" parent="1" vertex="1">
                    <mxGeometry x="33" y="130" width="777" height="380" as="geometry"/>
                </mxCell>
                <mxCell id="9" style="edgeStyle=none;html=1;entryX=0.01;entryY=0.55;entryDx=0;entryDy=0;entryPerimeter=0;noEdgeStyle=1;orthogonal=1;" parent="1" source="2" target="6" edge="1">
                    <mxGeometry relative="1" as="geometry"/>
                </mxCell>
                <mxCell id="2" value="" style="aspect=fixed;html=1;points=[];align=center;image;fontSize=12;image=img/lib/azure2/app_services/API_Management_Services.svg;" parent="1" vertex="1">
                    <mxGeometry x="198" y="266" width="65" height="60" as="geometry"/>
                </mxCell>
                <mxCell id="12" style="edgeStyle=none;html=1;entryX=-0.052;entryY=0.474;entryDx=0;entryDy=0;entryPerimeter=0;noEdgeStyle=1;orthogonal=1;" parent="1" source="3" target="4" edge="1">
                    <mxGeometry relative="1" as="geometry"/>
                </mxCell>
                <mxCell id="3" value="" style="aspect=fixed;html=1;points=[];align=center;image;fontSize=12;image=img/lib/azure2/integration/Logic_Apps.svg;" parent="1" vertex="1">
                    <mxGeometry x="549" y="270" width="67" height="52" as="geometry"/>
                </mxCell>
                <mxCell id="4" value="" style="aspect=fixed;html=1;points=[];align=center;image;fontSize=12;image=img/lib/azure2/databases/Azure_Cosmos_DB.svg;" parent="1" vertex="1">
                    <mxGeometry x="666" y="264" width="64" height="64" as="geometry"/>
                </mxCell>
                <mxCell id="11" style="edgeStyle=none;html=1;entryX=0.06;entryY=0.468;entryDx=0;entryDy=0;entryPerimeter=0;noEdgeStyle=1;orthogonal=1;" parent="1" source="5" target="3" edge="1">
                    <mxGeometry relative="1" as="geometry"/>
                </mxCell>
                <mxCell id="5" value="" style="aspect=fixed;html=1;points=[];align=center;image;fontSize=12;image=img/lib/azure2/integration/Service_Bus.svg;" parent="1" vertex="1">
                    <mxGeometry x="431" y="266" width="68" height="60" as="geometry"/>
                </mxCell>
                <mxCell id="10" style="edgeStyle=none;html=1;entryX=-0.039;entryY=0.483;entryDx=0;entryDy=0;entryPerimeter=0;noEdgeStyle=1;orthogonal=1;" parent="1" source="6" target="5" edge="1">
                    <mxGeometry relative="1" as="geometry"/>
                </mxCell>
                <mxCell id="6" value="" style="aspect=fixed;html=1;points=[];align=center;image;fontSize=12;image=img/lib/azure2/compute/Function_Apps.svg;" parent="1" vertex="1">
                    <mxGeometry x="313" y="266" width="68" height="60" as="geometry"/>
                </mxCell>
                <mxCell id="13" style="edgeStyle=none;html=1;entryX=0;entryY=0.447;entryDx=0;entryDy=0;entryPerimeter=0;" parent="1" source="7" target="2" edge="1">
                    <mxGeometry relative="1" as="geometry"/>
                </mxCell>
                <mxCell id="7" value="" style="outlineConnect=0;dashed=0;verticalLabelPosition=bottom;verticalAlign=top;align=center;html=1;shape=mxgraph.aws3.http_protocol;fillColor=#5294CF;gradientColor=none;" parent="1" vertex="1">
                    <mxGeometry x="90" y="260" width="63" height="66" as="geometry"/>
                </mxCell>
            </root>
        </mxGraphModel>
    </diagram>
    <diagram id="kTPJT0noBWRAnFOiq_Rm" name="Hospital POV">
        <mxGraphModel dx="1103" dy="626" grid="1" gridSize="10" guides="1" tooltips="1" connect="1" arrows="1" fold="1" page="1" pageScale="1" pageWidth="850" pageHeight="1400" math="0" shadow="0">
            <root>
                <mxCell id="0"/>
                <mxCell id="1" parent="0"/>
                <mxCell id="ust_36N75CB8goXbVb86-23" style="edgeStyle=none;html=1;entryX=0;entryY=0.5;entryDx=0;entryDy=0;" edge="1" parent="1" source="ust_36N75CB8goXbVb86-1" target="ust_36N75CB8goXbVb86-2">
                    <mxGeometry relative="1" as="geometry"/>
                </mxCell>
                <mxCell id="ust_36N75CB8goXbVb86-1" value="Patient" style="shape=umlActor;verticalLabelPosition=bottom;verticalAlign=top;html=1;outlineConnect=0;" vertex="1" parent="1">
                    <mxGeometry x="45" y="80" width="30" height="60" as="geometry"/>
                </mxCell>
                <mxCell id="ust_36N75CB8goXbVb86-4" value="" style="edgeStyle=none;html=1;" edge="1" parent="1" source="ust_36N75CB8goXbVb86-2" target="ust_36N75CB8goXbVb86-3">
                    <mxGeometry relative="1" as="geometry"/>
                </mxCell>
                <mxCell id="ust_36N75CB8goXbVb86-2" value="Schedule Appt&lt;br&gt;Scheduled" style="rounded=0;whiteSpace=wrap;html=1;" vertex="1" parent="1">
                    <mxGeometry x="159" y="80" width="120" height="60" as="geometry"/>
                </mxCell>
                <mxCell id="ust_36N75CB8goXbVb86-6" value="" style="edgeStyle=none;html=1;fillColor=#d80073;strokeColor=#A50040;" edge="1" parent="1" source="ust_36N75CB8goXbVb86-3" target="ust_36N75CB8goXbVb86-5">
                    <mxGeometry relative="1" as="geometry"/>
                </mxCell>
                <mxCell id="ust_36N75CB8goXbVb86-3" value="Check-In&lt;br&gt;Checked In" style="whiteSpace=wrap;html=1;rounded=0;" vertex="1" parent="1">
                    <mxGeometry x="359" y="80" width="120" height="60" as="geometry"/>
                </mxCell>
                <mxCell id="ust_36N75CB8goXbVb86-8" value="" style="edgeStyle=none;html=1;fillColor=#d80073;strokeColor=#A50040;" edge="1" parent="1" source="ust_36N75CB8goXbVb86-5" target="ust_36N75CB8goXbVb86-7">
                    <mxGeometry relative="1" as="geometry"/>
                </mxCell>
                <mxCell id="ust_36N75CB8goXbVb86-5" value="Triage&lt;br&gt;Triaged" style="whiteSpace=wrap;html=1;rounded=0;" vertex="1" parent="1">
                    <mxGeometry x="559" y="80" width="120" height="60" as="geometry"/>
                </mxCell>
                <mxCell id="ust_36N75CB8goXbVb86-15" value="" style="edgeStyle=none;html=1;fillColor=#d80073;strokeColor=#A50040;" edge="1" parent="1" source="ust_36N75CB8goXbVb86-7" target="ust_36N75CB8goXbVb86-14">
                    <mxGeometry relative="1" as="geometry"/>
                </mxCell>
                <mxCell id="ust_36N75CB8goXbVb86-7" value="Provider Examined" style="whiteSpace=wrap;html=1;rounded=0;" vertex="1" parent="1">
                    <mxGeometry x="559" y="220" width="120" height="60" as="geometry"/>
                </mxCell>
                <mxCell id="ust_36N75CB8goXbVb86-9" value="Check Out&lt;br&gt;Discharged" style="whiteSpace=wrap;html=1;rounded=0;" vertex="1" parent="1">
                    <mxGeometry x="359" y="220" width="120" height="60" as="geometry"/>
                </mxCell>
                <mxCell id="ust_36N75CB8goXbVb86-13" value="Hospital POV" style="text;html=1;strokeColor=none;fillColor=none;align=center;verticalAlign=middle;whiteSpace=wrap;rounded=0;" vertex="1" parent="1">
                    <mxGeometry x="159" y="10" width="150" height="30" as="geometry"/>
                </mxCell>
                <mxCell id="ust_36N75CB8goXbVb86-16" style="edgeStyle=none;html=1;entryX=0.681;entryY=0.984;entryDx=0;entryDy=0;entryPerimeter=0;fillColor=#d80073;strokeColor=#A50040;" edge="1" parent="1" target="ust_36N75CB8goXbVb86-9">
                    <mxGeometry relative="1" as="geometry">
                        <mxPoint x="581.0000000000002" y="390.0000000000001" as="sourcePoint"/>
                        <mxPoint x="414.28" y="277.9" as="targetPoint"/>
                        <Array as="points">
                            <mxPoint x="440" y="390"/>
                        </Array>
                    </mxGeometry>
                </mxCell>
                <mxCell id="ust_36N75CB8goXbVb86-22" value="no" style="edgeLabel;html=1;align=center;verticalAlign=middle;resizable=0;points=[];" vertex="1" connectable="0" parent="ust_36N75CB8goXbVb86-16">
                    <mxGeometry x="-0.3404" y="-3" relative="1" as="geometry">
                        <mxPoint as="offset"/>
                    </mxGeometry>
                </mxCell>
                <mxCell id="ust_36N75CB8goXbVb86-18" value="" style="edgeStyle=none;html=1;" edge="1" parent="1" source="ust_36N75CB8goXbVb86-14" target="ust_36N75CB8goXbVb86-17">
                    <mxGeometry relative="1" as="geometry"/>
                </mxCell>
                <mxCell id="ust_36N75CB8goXbVb86-21" value="yes" style="edgeLabel;html=1;align=center;verticalAlign=middle;resizable=0;points=[];" vertex="1" connectable="0" parent="ust_36N75CB8goXbVb86-18">
                    <mxGeometry x="-0.5011" y="2" relative="1" as="geometry">
                        <mxPoint as="offset"/>
                    </mxGeometry>
                </mxCell>
                <mxCell id="ust_36N75CB8goXbVb86-14" value="Additional Services?" style="rhombus;whiteSpace=wrap;html=1;rounded=0;" vertex="1" parent="1">
                    <mxGeometry x="579" y="350" width="80" height="80" as="geometry"/>
                </mxCell>
                <mxCell id="ust_36N75CB8goXbVb86-20" value="" style="edgeStyle=none;html=1;entryX=0.341;entryY=1.032;entryDx=0;entryDy=0;entryPerimeter=0;" edge="1" parent="1" source="ust_36N75CB8goXbVb86-17" target="ust_36N75CB8goXbVb86-9">
                    <mxGeometry relative="1" as="geometry">
                        <Array as="points">
                            <mxPoint x="400" y="420"/>
                        </Array>
                    </mxGeometry>
                </mxCell>
                <mxCell id="ust_36N75CB8goXbVb86-24" style="edgeStyle=none;html=1;entryX=1;entryY=0.5;entryDx=0;entryDy=0;" edge="1" parent="1" source="ust_36N75CB8goXbVb86-17" target="ust_36N75CB8goXbVb86-19">
                    <mxGeometry relative="1" as="geometry"/>
                </mxCell>
                <mxCell id="ust_36N75CB8goXbVb86-17" value="Labs Taken" style="whiteSpace=wrap;html=1;rounded=0;" vertex="1" parent="1">
                    <mxGeometry x="559" y="479" width="120" height="60" as="geometry"/>
                </mxCell>
                <mxCell id="ust_36N75CB8goXbVb86-19" value="Results" style="whiteSpace=wrap;html=1;rounded=0;" vertex="1" parent="1">
                    <mxGeometry x="159" y="479" width="120" height="60" as="geometry"/>
                </mxCell>
            </root>
        </mxGraphModel>
    </diagram>
</mxfile>